<mxfile host="app.diagrams.net" agent="Mozilla/5.0 (Windows NT 10.0; Win64; x64) AppleWebKit/537.36 (KHTML, like Gecko) Chrome/131.0.0.0 Safari/537.36" version="24.9.2">
  <diagram id="WI9T0HZ2pTsCkuznbFz-" name="Page-1">
    <mxGraphModel dx="2049" dy="408" grid="1" gridSize="10" guides="1" tooltips="1" connect="1" arrows="1" fold="1" page="1" pageScale="1" pageWidth="1169" pageHeight="827" math="0" shadow="0">
      <root>
        <mxCell id="0" />
        <mxCell id="1" parent="0" />
        <mxCell id="rDDcXXg_0v3O3Yvvn_hc-6" value="&lt;div&gt;&lt;br&gt;&lt;/div&gt;" style="rounded=0;whiteSpace=wrap;html=1;align=left;" vertex="1" parent="1">
          <mxGeometry x="-203" y="40" width="300" height="270" as="geometry" />
        </mxCell>
        <mxCell id="AcxdMaKK0mU5kZiv2lnr-49" style="edgeStyle=elbowEdgeStyle;rounded=0;orthogonalLoop=1;jettySize=auto;elbow=vertical;html=1;strokeColor=#808080;entryX=-0.032;entryY=0.493;entryDx=0;entryDy=0;entryPerimeter=0;exitX=1.016;exitY=0.498;exitDx=0;exitDy=0;exitPerimeter=0;" parent="1" source="RLjyjs_sm2IHfBNOWAbh-12" target="RLjyjs_sm2IHfBNOWAbh-14" edge="1">
          <mxGeometry relative="1" as="geometry">
            <mxPoint x="845.5" y="45.5" as="sourcePoint" />
            <mxPoint x="1105.5" y="45.5" as="targetPoint" />
          </mxGeometry>
        </mxCell>
        <mxCell id="RLjyjs_sm2IHfBNOWAbh-35" style="edgeStyle=elbowEdgeStyle;rounded=0;orthogonalLoop=1;jettySize=auto;html=1;strokeColor=#808080;entryX=-0.003;entryY=0.508;entryDx=0;entryDy=0;entryPerimeter=0;" parent="1" source="RLjyjs_sm2IHfBNOWAbh-13" target="RLjyjs_sm2IHfBNOWAbh-19" edge="1">
          <mxGeometry relative="1" as="geometry" />
        </mxCell>
        <mxCell id="RLjyjs_sm2IHfBNOWAbh-27" style="edgeStyle=elbowEdgeStyle;rounded=0;orthogonalLoop=1;jettySize=auto;html=1;strokeColor=#808080;entryX=-0.038;entryY=0.5;entryDx=0;entryDy=0;entryPerimeter=0;exitX=1.031;exitY=0.506;exitDx=0;exitDy=0;exitPerimeter=0;elbow=vertical;" parent="1" source="RLjyjs_sm2IHfBNOWAbh-14" target="RLjyjs_sm2IHfBNOWAbh-16" edge="1">
          <mxGeometry relative="1" as="geometry" />
        </mxCell>
        <mxCell id="RLjyjs_sm2IHfBNOWAbh-37" style="edgeStyle=elbowEdgeStyle;rounded=0;orthogonalLoop=1;jettySize=auto;html=1;strokeColor=#808080;entryX=0.496;entryY=0.02;entryDx=0;entryDy=0;entryPerimeter=0;exitX=0.497;exitY=1;exitDx=0;exitDy=0;exitPerimeter=0;" parent="1" source="RLjyjs_sm2IHfBNOWAbh-16" target="RLjyjs_sm2IHfBNOWAbh-19" edge="1">
          <mxGeometry relative="1" as="geometry" />
        </mxCell>
        <mxCell id="RLjyjs_sm2IHfBNOWAbh-28" style="edgeStyle=elbowEdgeStyle;rounded=0;orthogonalLoop=1;jettySize=auto;html=1;strokeColor=#808080;" parent="1" source="RLjyjs_sm2IHfBNOWAbh-17" target="RLjyjs_sm2IHfBNOWAbh-24" edge="1">
          <mxGeometry relative="1" as="geometry">
            <Array as="points">
              <mxPoint x="909.5" y="295.5" />
            </Array>
          </mxGeometry>
        </mxCell>
        <mxCell id="RLjyjs_sm2IHfBNOWAbh-36" style="edgeStyle=elbowEdgeStyle;rounded=0;orthogonalLoop=1;jettySize=auto;html=1;strokeColor=#808080;exitX=0.997;exitY=0.495;exitDx=0;exitDy=0;exitPerimeter=0;" parent="1" source="RLjyjs_sm2IHfBNOWAbh-19" target="RLjyjs_sm2IHfBNOWAbh-23" edge="1">
          <mxGeometry relative="1" as="geometry" />
        </mxCell>
        <mxCell id="RLjyjs_sm2IHfBNOWAbh-32" style="edgeStyle=elbowEdgeStyle;rounded=0;orthogonalLoop=1;jettySize=auto;html=1;strokeColor=#808080;entryX=0.996;entryY=0.508;entryDx=0;entryDy=0;entryPerimeter=0;startArrow=classic;startFill=1;elbow=vertical;" parent="1" target="RLjyjs_sm2IHfBNOWAbh-21" edge="1">
          <mxGeometry relative="1" as="geometry">
            <mxPoint x="695.5" y="503.5" as="sourcePoint" />
          </mxGeometry>
        </mxCell>
        <mxCell id="RLjyjs_sm2IHfBNOWAbh-33" style="edgeStyle=elbowEdgeStyle;rounded=0;orthogonalLoop=1;jettySize=auto;html=1;strokeColor=#808080;" parent="1" source="RLjyjs_sm2IHfBNOWAbh-20" edge="1">
          <mxGeometry relative="1" as="geometry">
            <mxPoint x="720.5" y="405.5" as="targetPoint" />
          </mxGeometry>
        </mxCell>
        <mxCell id="RLjyjs_sm2IHfBNOWAbh-31" style="edgeStyle=elbowEdgeStyle;rounded=0;orthogonalLoop=1;jettySize=auto;html=1;strokeColor=#808080;" parent="1" source="RLjyjs_sm2IHfBNOWAbh-22" edge="1">
          <mxGeometry relative="1" as="geometry">
            <mxPoint x="720.5" y="525.5" as="targetPoint" />
          </mxGeometry>
        </mxCell>
        <mxCell id="RLjyjs_sm2IHfBNOWAbh-29" style="edgeStyle=elbowEdgeStyle;rounded=0;orthogonalLoop=1;jettySize=auto;html=1;entryX=0.494;entryY=1.052;entryDx=0;entryDy=0;entryPerimeter=0;strokeColor=#808080;" parent="1" source="RLjyjs_sm2IHfBNOWAbh-23" target="RLjyjs_sm2IHfBNOWAbh-24" edge="1">
          <mxGeometry relative="1" as="geometry" />
        </mxCell>
        <mxCell id="RLjyjs_sm2IHfBNOWAbh-30" style="edgeStyle=elbowEdgeStyle;rounded=0;orthogonalLoop=1;jettySize=auto;html=1;strokeColor=#808080;exitX=0.62;exitY=1.036;exitDx=0;exitDy=0;exitPerimeter=0;startArrow=classic;startFill=1;" parent="1" source="RLjyjs_sm2IHfBNOWAbh-23" edge="1">
          <mxGeometry relative="1" as="geometry">
            <mxPoint x="745.5" y="616.5" as="targetPoint" />
            <Array as="points">
              <mxPoint x="913.5" y="616.5" />
            </Array>
          </mxGeometry>
        </mxCell>
        <mxCell id="RLjyjs_sm2IHfBNOWAbh-12" value="Diagrnostic &lt;br&gt;Events" style="aspect=fixed;html=1;perimeter=none;align=center;shadow=0;dashed=0;image;fontSize=12;image=img/lib/mscae/DirectorySync.svg;labelBackgroundColor=#ffffff;fillColor=#4D9900;" parent="1" vertex="1">
          <mxGeometry x="235.5" y="198.99999999999994" width="50" height="50" as="geometry" />
        </mxCell>
        <mxCell id="RLjyjs_sm2IHfBNOWAbh-13" value="Vehicle&#xa;Catalogue" style="shape=image;verticalLabelPosition=bottom;labelBackgroundColor=#ffffff;verticalAlign=top;aspect=fixed;imageAspect=0;image=data:image/svg+xml,PHN2ZyB4bWxuczpkYz0iaHR0cDovL3B1cmwub3JnL2RjL2VsZW1lbnRzLzEuMS8iIHhtbG5zOmNjPSJodHRwOi8vY3JlYXRpdmVjb21tb25zLm9yZy9ucyMiIHhtbG5zOnJkZj0iaHR0cDovL3d3dy53My5vcmcvMTk5OS8wMi8yMi1yZGYtc3ludGF4LW5zIyIgeG1sbnM6c3ZnPSJodHRwOi8vd3d3LnczLm9yZy8yMDAwL3N2ZyIgeG1sbnM9Imh0dHA6Ly93d3cudzMub3JnLzIwMDAvc3ZnIiB4bWxuczp4bGluaz0iaHR0cDovL3d3dy53My5vcmcvMTk5OS94bGluayIgeG1sbnM6c29kaXBvZGk9Imh0dHA6Ly9zb2RpcG9kaS5zb3VyY2Vmb3JnZS5uZXQvRFREL3NvZGlwb2RpLTAuZHRkIiB4bWxuczppbmtzY2FwZT0iaHR0cDovL3d3dy5pbmtzY2FwZS5vcmcvbmFtZXNwYWNlcy9pbmtzY2FwZSIgdmVyc2lvbj0iMS4xIiBpZD0iTGF5ZXJfMSIgeD0iMHB4IiB5PSIwcHgiIHZpZXdCb3g9IjAgMCA0Ny45NTM3NyA0Ny45NDAzNjkiIHhtbDpzcGFjZT0icHJlc2VydmUiIHNvZGlwb2RpOmRvY25hbWU9ImRldm9wc19zaGlwcGluZy5zdmciIHdpZHRoPSI0Ny45NTM3NyIgaGVpZ2h0PSI0Ny45NDAzNjkiIGlua3NjYXBlOnZlcnNpb249IjAuOTIuMyAoMjQwNTU0NiwgMjAxOC0wMy0xMSkiPjxtZXRhZGF0YSBpZD0ibWV0YWRhdGE0NjI2NyI+PHJkZjpSREY+PGNjOldvcmsgcmRmOmFib3V0PSIiPjxkYzpmb3JtYXQ+aW1hZ2Uvc3ZnK3htbDwvZGM6Zm9ybWF0PjxkYzp0eXBlIHJkZjpyZXNvdXJjZT0iaHR0cDovL3B1cmwub3JnL2RjL2RjbWl0eXBlL1N0aWxsSW1hZ2UiLz48ZGM6dGl0bGUvPjwvY2M6V29yaz48L3JkZjpSREY+PC9tZXRhZGF0YT48ZGVmcyBpZD0iZGVmczQ2MjY1Ii8+PHNvZGlwb2RpOm5hbWVkdmlldyBwYWdlY29sb3I9IiNmZmZmZmYiIGJvcmRlcmNvbG9yPSIjNjY2NjY2IiBib3JkZXJvcGFjaXR5PSIxIiBvYmplY3R0b2xlcmFuY2U9IjEwIiBncmlkdG9sZXJhbmNlPSIxMCIgZ3VpZGV0b2xlcmFuY2U9IjEwIiBpbmtzY2FwZTpwYWdlb3BhY2l0eT0iMCIgaW5rc2NhcGU6cGFnZXNoYWRvdz0iMiIgaW5rc2NhcGU6d2luZG93LXdpZHRoPSIxOTIwIiBpbmtzY2FwZTp3aW5kb3ctaGVpZ2h0PSIxMDE3IiBpZD0ibmFtZWR2aWV3NDYyNjMiIHNob3dncmlkPSJmYWxzZSIgZml0LW1hcmdpbi10b3A9IjAiIGZpdC1tYXJnaW4tbGVmdD0iMCIgZml0LW1hcmdpbi1yaWdodD0iMCIgZml0LW1hcmdpbi1ib3R0b209IjAiIGlua3NjYXBlOnpvb209IjEuMDMwMzAzIiBpbmtzY2FwZTpjeD0iLTYuNzg1MDAzNyIgaW5rc2NhcGU6Y3k9Ii0zMTAuNDQ5NjMiIGlua3NjYXBlOndpbmRvdy14PSItOCIgaW5rc2NhcGU6d2luZG93LXk9Ii04IiBpbmtzY2FwZTp3aW5kb3ctbWF4aW1pemVkPSIxIiBpbmtzY2FwZTpjdXJyZW50LWxheWVyPSJMYXllcl8xIi8+JiN4YTsmI3hhOzxnIGlkPSJnNDYyNjAiIHRyYW5zZm9ybT0idHJhbnNsYXRlKC0zMDQuMTYsLTYyLjM2MDAwMSkiPiYjeGE7CTxkZWZzIGlkPSJkZWZzNDYyMTkiPiYjeGE7CQk8cmVjdCBpZD0iU1ZHSURfM18iIHg9IjMwNC4xNiIgeT0iNjIuMzYwMDAxIiB3aWR0aD0iNDguMTYiIGhlaWdodD0iNDguMTYiLz4mI3hhOwk8L2RlZnM+JiN4YTsJPGNsaXBQYXRoIGlkPSJTVkdJRF80XyI+JiN4YTsJCTx1c2UgeGxpbms6aHJlZj0iI1NWR0lEXzNfIiBzdHlsZT0ib3ZlcmZsb3c6dmlzaWJsZSIgaWQ9InVzZTQ2MjIxIiB4PSIwIiB5PSIwIiB3aWR0aD0iMTAwJSIgaGVpZ2h0PSIxMDAlIi8+JiN4YTsJPC9jbGlwUGF0aD4mI3hhOwk8ZyBjbGlwLXBhdGg9InVybCgjU1ZHSURfNF8pIiBpZD0iZzQ2MjU4Ij4mI3hhOwkJPGRlZnMgaWQ9ImRlZnM0NjIyNSI+JiN4YTsJCQk8cmVjdCBpZD0iU1ZHSURfNV8iIHg9IjMwNC4xNiIgeT0iNjIuMzYwMDAxIiB3aWR0aD0iNDguMTYiIGhlaWdodD0iNDguMTYiLz4mI3hhOwkJPC9kZWZzPiYjeGE7CQk8Y2xpcFBhdGggaWQ9IlNWR0lEXzZfIj4mI3hhOwkJCTx1c2UgeGxpbms6aHJlZj0iI1NWR0lEXzVfIiBzdHlsZT0ib3ZlcmZsb3c6dmlzaWJsZSIgaWQ9InVzZTQ2MjI3IiB4PSIwIiB5PSIwIiB3aWR0aD0iMTAwJSIgaGVpZ2h0PSIxMDAlIi8+JiN4YTsJCTwvY2xpcFBhdGg+JiN4YTsJCTxwYXRoIHN0eWxlPSJmaWxsOiNmZmZmZmYiIGQ9Im0gMzI4LjEzLDEwOS45NCBjIC05LjUzLDAgLTE4LjE2LC01Ljc1IC0yMS44MSwtMTQuNTYgLTMuNjYsLTguODEgLTEuNjIsLTE5IDUuMTUsLTI1LjcxIDYuNzEsLTYuNzcgMTYuOSwtOC44MSAyNS43MSwtNS4xNSA4LjgxLDMuNjYgMTQuNTYsMTIuMjkgMTQuNTYsMjEuODEgLTAuMDYsMTMgLTEwLjYxLDIzLjU1IC0yMy42MSwyMy42MSB6IiBjbGlwLXBhdGg9InVybCgjU1ZHSURfNl8pIiBpZD0icGF0aDQ2MjMwIiBpbmtzY2FwZTpjb25uZWN0b3ItY3VydmF0dXJlPSIwIi8+JiN4YTsJCTxwYXRoIHN0eWxlPSJmaWxsOiNlNWU1ZTUiIGQ9Im0gMzI4LjEzLDEwOS41OCBjIC02Ljg5LDAgLTEzLjM2LC0zLjA2IC0xNy44LC04LjMzIC0wLjY2LC0wLjg0IC0xLjMyLC0xLjY4IC0xLjg2LC0yLjU4IC0wLjQ4LC0wLjcyIC0wLjg0LC0xLjQ0IC0xLjIsLTIuMTYgbCAtMC4xMiwtMC4xMiBjIC0wLjEyLC0wLjI0IC0wLjE4LC0wLjQyIC0wLjMsLTAuNiBsIC0wLjEyLC0wLjQ4IGMgLTAuNDgsLTAuOTYgLTAuNzgsLTEuOTggLTEuMDgsLTMgLTAuNDIsLTEuNSAtMC42NiwtMyAtMC43MiwtNC40OSBoIDQ2LjM4IGMgLTAuNzcsMTIuMjMgLTEwLjk2LDIxLjc2IC0yMy4xOCwyMS43NiB6IiBjbGlwLXBhdGg9InVybCgjU1ZHSURfNl8pIiBpZD0icGF0aDQ2MjMyIiBpbmtzY2FwZTpjb25uZWN0b3ItY3VydmF0dXJlPSIwIi8+JiN4YTsJCTxwb2x5Z29uIHN0eWxlPSJmaWxsOiNmZmZmZmYiIHBvaW50cz0iMzMxLjksNzguODQgMzMxLjksOTMuMSAzNDMuODksOTMuMSAzNDMuODksODQuMjkgMzM5LjIyLDc4Ljg0ICIgY2xpcC1wYXRoPSJ1cmwoI1NWR0lEXzZfKSIgaWQ9InBvbHlnb240NjIzNCIvPiYjeGE7CQk8cG9seWdvbiBzdHlsZT0iZmlsbDojMmJjN2Y0IiBwb2ludHM9IjMzNC45LDg1LjYxIDMzNC45LDc5LjYyIDMzOS40LDc5LjYyIDM0My4xMSw4My43NSAzNDMuODksODUuNjEgIiBjbGlwLXBhdGg9InVybCgjU1ZHSURfNl8pIiBpZD0icG9seWdvbjQ2MjM2Ii8+JiN4YTsJCTxwYXRoIHN0eWxlPSJmaWxsOiM1NTZhOGEiIGQ9Im0gMzQ0LjY0LDkzLjEgLTAuNzUsMC43NSBIIDMzMS45IEwgMzMxLjE1LDkzLjEgViA3OC44NCBsIDAuNzUsLTAuNzUgaCA3LjMxIGwgMC41NywwLjI2IDQuNjcsNS40NSAwLjE4LDAuNDkgdiA4LjgxIHogbSAtMS41LC04LjgxIDAuMTgsMC40OSAtNC42NywtNS40NSAwLjU3LDAuMjYgaCAtNy4zMSBsIDAuNzUsLTAuNzUgViA5My4xIGwgLTAuNzUsLTAuNzUgaCAxMS45OCBsIC0wLjc1LDAuNzUgeiIgY2xpcC1wYXRoPSJ1cmwoI1NWR0lEXzZfKSIgaWQ9InBhdGg0NjIzOCIgaW5rc2NhcGU6Y29ubmVjdG9yLWN1cnZhdHVyZT0iMCIvPiYjeGE7CQk8cmVjdCB4PSIzMTMuMTQ5OTkiIHk9Ijc1LjEyMDAwMyIgc3R5bGU9ImZpbGw6I2ZmZmZmZiIgd2lkdGg9IjIxLjc1IiBoZWlnaHQ9IjE3Ljk4IiBjbGlwLXBhdGg9InVybCgjU1ZHSURfNl8pIiBpZD0icmVjdDQ2MjQwIi8+JiN4YTsJCTxwYXRoIHN0eWxlPSJmaWxsOiM1NTZhOGEiIGQ9Im0gMzEzLjksOTMuMSAtMC43NSwtMC43NSBoIDIxLjc1IGwgLTAuNzUsMC43NSBWIDc1LjEyIGwgMC43NSwwLjc1IGggLTIxLjc1IGwgMC43NSwtMC43NSB6IG0gLTEuNSwtMTcuOTggMC43NSwtMC43NSBoIDIxLjc1IGwgMC43NSwwLjc1IFYgOTMuMSBsIC0wLjc1LDAuNzUgSCAzMTMuMTUgTCAzMTIuNCw5My4xIFoiIGNsaXAtcGF0aD0idXJsKCNTVkdJRF82XykiIGlkPSJwYXRoNDYyNDIiIGlua3NjYXBlOmNvbm5lY3Rvci1jdXJ2YXR1cmU9IjAiLz4mI3hhOwkJPGNpcmNsZSBzdHlsZT0iZmlsbDojZmZmZmZmIiBjeD0iMzE5LjkyMDAxIiBjeT0iOTQuNjYwMDA0IiByPSI0LjQ4OTk5OTgiIGNsaXAtcGF0aD0idXJsKCNTVkdJRF82XykiIGlkPSJjaXJjbGU0NjI0NCIvPiYjeGE7CQk8cGF0aCBzdHlsZT0iZmlsbDojNTU2YThhIiBkPSJtIDMyMy42NCw5NC4yNCAwLjAxLDAuMDggLTAuMDcsLTAuNDQgMC4wMywwLjEyIC0wLjI3LC0wLjg0IDAuMDUsMC4xMyAtMC40MSwtMC43NiAwLjA4LDAuMTIgLTAuNTUsLTAuNjcgMC4xLDAuMSAtMC42NywtMC41NSAwLjEyLDAuMDggLTAuNzYsLTAuNDEgMC4xMywwLjA1IC0wLjg0LC0wLjI3IDAuMTIsMC4wMyAtMC40NCwtMC4wNyAwLjA4LDAuMDEgLTAuNDYsLTAuMDIgaCAwLjA3IGwgLTAuNDYsMC4wMiAwLjA3LC0wLjAxIC0wLjQ1LDAuMDYgMC4xMiwtMC4wMyAtMC44NSwwLjI3IDAuMTMsLTAuMDUgLTAuNzYsMC40MSAwLjEyLC0wLjA4IC0wLjY3LDAuNTUgMC4xLC0wLjEgLTAuNTUsMC42NyAwLjA4LC0wLjEyIC0wLjQsMC43NiAwLjA1LC0wLjEzIC0wLjI2LDAuODQgMC4wMiwtMC4xMSAtMC4wNywwLjQ0IDAuMDEsLTAuMDggLTAuMDIsMC40NiB2IC0wLjA3IGwgMC4wMiwwLjQ2IC0wLjAxLC0wLjA3IDAuMDcsMC40NSAtMC4wMiwtMC4xMSAwLjI2LDAuODUgLTAuMDUsLTAuMTMgMC40LDAuNzYgLTAuMDgsLTAuMTMgMC41NSwwLjY2IC0wLjEsLTAuMSAwLjY3LDAuNTUgLTAuMTIsLTAuMDggMC43NiwwLjQxIC0wLjE0LC0wLjA2IDAuODUsMC4yNSAtMC4xLC0wLjAyIDAuNDUsMC4wNyAtMC4wNywtMC4wMSAwLjQ2LDAuMDIgaCAtMC4wNyBsIDAuNDYsLTAuMDIgLTAuMDgsMC4wMSAwLjQ0LC0wLjA3IC0wLjEsMC4wMiAwLjg0LC0wLjI1IC0wLjE0LDAuMDYgMC43NiwtMC40MSAtMC4xMiwwLjA4IDAuNjcsLTAuNTUgLTAuMSwwLjEgMC41NSwtMC42NiAtMC4wOSwwLjEzIDAuNDEsLTAuNzYgLTAuMDUsMC4xMyAwLjI3LC0wLjg1IC0wLjAzLDAuMTEgMC4wNywtMC40NSAtMC4wMSwwLjA3IDAuMDIsLTAuNDYgdiAwLjA3IHogbSAxLjUyLDAuMzggdiAwLjA3IGwgLTAuMDIsMC40NiAtMC4wMSwwLjA3IC0wLjA3LDAuNDUgLTAuMDMsMC4xMSAtMC4yNywwLjg1IC0wLjA1LDAuMTMgLTAuNDEsMC43NiAtMC4wOSwwLjEzIC0wLjU1LDAuNjYgLTAuMSwwLjEgLTAuNjcsMC41NSAtMC4xMiwwLjA4IC0wLjc2LDAuNDEgLTAuMTQsMC4wNiAtMC44NCwwLjI1IC0wLjEsMC4wMiAtMC40NCwwLjA3IC0wLjA4LDAuMDEgLTAuNDYsMC4wMiBoIC0wLjA3IGwgLTAuNDYsLTAuMDIgLTAuMDcsLTAuMDEgLTAuNDUsLTAuMDcgLTAuMSwtMC4wMiAtMC44NSwtMC4yNSAtMC4xNCwtMC4wNiAtMC43NiwtMC40MSAtMC4xMiwtMC4wOCAtMC42NywtMC41NSAtMC4xLC0wLjEgLTAuNTUsLTAuNjYgLTAuMDgsLTAuMTMgLTAuNCwtMC43NiAtMC4wNSwtMC4xMyAtMC4yNiwtMC44NSAtMC4wMiwtMC4xMSAtMC4wNywtMC40NSAtMC4wMSwtMC4wNyAtMC4wMiwtMC40NiB2IC0wLjA3IGwgMC4wMiwtMC40NiAwLjAxLC0wLjA4IDAuMDcsLTAuNDQgMC4wMiwtMC4xMSAwLjI2LC0wLjg0IDAuMDUsLTAuMTMgMC40LC0wLjc2IDAuMDgsLTAuMTIgMC41NSwtMC42NyAwLjEsLTAuMSAwLjY3LC0wLjU1IDAuMTIsLTAuMDggMC43NiwtMC40MSAwLjEzLC0wLjA1IDAuODUsLTAuMjcgMC4xMiwtMC4wMyAwLjQ1LC0wLjA3IDAuMDcsLTAuMDEgMC40NiwtMC4wMiBoIDAuMDcgbCAwLjQ2LDAuMDIgMC4wOCwwLjAxIDAuNDQsMC4wNyAwLjEyLDAuMDMgMC44NCwwLjI3IDAuMTMsMC4wNSAwLjc2LDAuNDEgMC4xMiwwLjA4IDAuNjcsMC41NSAwLjEsMC4xIDAuNTUsMC42NyAwLjA4LDAuMTIgMC40MSwwLjc2IDAuMDUsMC4xMyAwLjI3LDAuODQgMC4wMywwLjEyIDAuMDcsMC40NCAwLjAxLDAuMDggeiIgY2xpcC1wYXRoPSJ1cmwoI1NWR0lEXzZfKSIgaWQ9InBhdGg0NjI0NiIgaW5rc2NhcGU6Y29ubmVjdG9yLWN1cnZhdHVyZT0iMCIvPiYjeGE7CQk8cGF0aCBzdHlsZT0iZmlsbDojMmJjN2Y0IiBkPSJtIDMyMS40Miw5NC42NiBjIDAsMC44NCAtMC43MiwxLjUgLTEuNSwxLjUgLTAuODQsMCAtMS41LC0wLjY2IC0xLjUsLTEuNSAwLC0wLjg0IDAuNjYsLTEuNSAxLjUsLTEuNSAwLjc4LDAgMS41LDAuNjYgMS41LDEuNSB6IiBjbGlwLXBhdGg9InVybCgjU1ZHSURfNl8pIiBpZD0icGF0aDQ2MjQ4IiBpbmtzY2FwZTpjb25uZWN0b3ItY3VydmF0dXJlPSIwIi8+JiN4YTsJCTxjaXJjbGUgc3R5bGU9ImZpbGw6I2ZmZmZmZiIgY3g9IjMzNC44OTk5OSIgY3k9Ijk0LjY2MDAwNCIgcj0iNC40ODk5OTk4IiBjbGlwLXBhdGg9InVybCgjU1ZHSURfNl8pIiBpZD0iY2lyY2xlNDYyNTAiLz4mI3hhOwkJPHBhdGggc3R5bGU9ImZpbGw6IzU1NmE4YSIgZD0ibSAzMzguNjIsOTQuMjQgMC4wMSwwLjA4IC0wLjA3LC0wLjQ0IDAuMDMsMC4xMiAtMC4yNywtMC44NCAwLjA1LDAuMTMgLTAuNDEsLTAuNzYgMC4wOCwwLjEyIC0wLjU1LC0wLjY3IDAuMSwwLjEgLTAuNjcsLTAuNTUgMC4xMiwwLjA4IC0wLjc2LC0wLjQxIDAuMTMsMC4wNSAtMC44NCwtMC4yNyAwLjEyLDAuMDMgLTAuNDQsLTAuMDcgMC4wOCwwLjAxIC0wLjQ2LC0wLjAyIGggMC4wNyBsIC0wLjQ2LDAuMDIgMC4wNywtMC4wMSAtMC40NSwwLjA2IDAuMTIsLTAuMDMgLTAuODUsMC4yNyAwLjEzLC0wLjA1IC0wLjc2LDAuNDEgMC4xMiwtMC4wOCAtMC42NywwLjU1IDAuMSwtMC4xIC0wLjU1LDAuNjcgMC4wOCwtMC4xMiAtMC40LDAuNzYgMC4wNSwtMC4xMyAtMC4yNiwwLjg0IDAuMDIsLTAuMTEgLTAuMDcsMC40NCAwLjAxLC0wLjA4IC0wLjAyLDAuNDYgdiAtMC4wNyBsIDAuMDIsMC40NiAtMC4wMSwtMC4wNyAwLjA3LDAuNDUgLTAuMDIsLTAuMTEgMC4yNiwwLjg1IC0wLjA1LC0wLjEzIDAuNCwwLjc2IC0wLjA4LC0wLjEzIDAuNTUsMC42NiAtMC4xLC0wLjEgMC42NywwLjU1IC0wLjEyLC0wLjA4IDAuNzYsMC40MSAtMC4xNCwtMC4wNiAwLjg1LDAuMjUgLTAuMSwtMC4wMiAwLjQ1LDAuMDcgLTAuMDcsLTAuMDEgMC40NiwwLjAyIGggLTAuMDcgbCAwLjQ2LC0wLjAyIC0wLjA4LDAuMDEgMC40NCwtMC4wNyAtMC4xLDAuMDIgMC44NCwtMC4yNSAtMC4xNCwwLjA2IDAuNzYsLTAuNDEgLTAuMTIsMC4wOCAwLjY3LC0wLjU1IC0wLjEsMC4xIDAuNTUsLTAuNjYgLTAuMDksMC4xMyAwLjQxLC0wLjc2IC0wLjA1LDAuMTMgMC4yNywtMC44NSAtMC4wMywwLjExIDAuMDcsLTAuNDUgLTAuMDEsMC4wNyAwLjAyLC0wLjQ2IHYgMC4wNyB6IG0gMS41MiwwLjM4IHYgMC4wNyBsIC0wLjAyLDAuNDYgLTAuMDEsMC4wNyAtMC4wNywwLjQ1IC0wLjAzLDAuMTEgLTAuMjcsMC44NSAtMC4wNSwwLjEzIC0wLjQxLDAuNzYgLTAuMDksMC4xMyAtMC41NSwwLjY2IC0wLjEsMC4xIC0wLjY3LDAuNTUgLTAuMTIsMC4wOCAtMC43NiwwLjQxIC0wLjE0LDAuMDYgLTAuODQsMC4yNSAtMC4xLDAuMDIgLTAuNDQsMC4wNyAtMC4wOCwwLjAxIC0wLjQ2LDAuMDIgaCAtMC4wNyBsIC0wLjQ2LC0wLjAyIC0wLjA3LC0wLjAxIC0wLjQ1LC0wLjA3IC0wLjEsLTAuMDIgLTAuODUsLTAuMjUgLTAuMTQsLTAuMDYgLTAuNzYsLTAuNDEgLTAuMTIsLTAuMDggLTAuNjcsLTAuNTUgLTAuMSwtMC4xIC0wLjU1LC0wLjY2IC0wLjA4LC0wLjEzIC0wLjQsLTAuNzYgLTAuMDUsLTAuMTMgLTAuMjYsLTAuODUgLTAuMDIsLTAuMTEgLTAuMDcsLTAuNDUgLTAuMDEsLTAuMDcgLTAuMDIsLTAuNDYgdiAtMC4wNyBsIDAuMDIsLTAuNDYgMC4wMSwtMC4wOCAwLjA3LC0wLjQ0IDAuMDIsLTAuMTEgMC4yNiwtMC44NCAwLjA1LC0wLjEzIDAuNCwtMC43NiAwLjA4LC0wLjEyIDAuNTUsLTAuNjcgMC4xLC0wLjEgMC42NywtMC41NSAwLjEyLC0wLjA4IDAuNzYsLTAuNDEgMC4xMywtMC4wNSAwLjg1LC0wLjI3IDAuMTIsLTAuMDMgMC40NSwtMC4wNyAwLjA3LC0wLjAxIDAuNDYsLTAuMDIgaCAwLjA3IGwgMC40NiwwLjAyIDAuMDgsMC4wMSAwLjQ0LDAuMDcgMC4xMiwwLjAzIDAuODQsMC4yNyAwLjEzLDAuMDUgMC43NiwwLjQxIDAuMTIsMC4wOCAwLjY3LDAuNTUgMC4xLDAuMSAwLjU1LDAuNjcgMC4wOCwwLjEyIDAuNDEsMC43NiAwLjA1LDAuMTMgMC4yNywwLjg0IDAuMDMsMC4xMiAwLjA3LDAuNDQgMC4wMSwwLjA4IHoiIGNsaXAtcGF0aD0idXJsKCNTVkdJRF82XykiIGlkPSJwYXRoNDYyNTIiIGlua3NjYXBlOmNvbm5lY3Rvci1jdXJ2YXR1cmU9IjAiLz4mI3hhOwkJPHBhdGggc3R5bGU9ImZpbGw6IzJiYzdmNCIgZD0ibSAzMzYuNCw5NC42NiBjIDAsMC44NCAtMC43MiwxLjUgLTEuNSwxLjUgLTAuODQsMCAtMS41LC0wLjY2IC0xLjUsLTEuNSAwLC0wLjg0IDAuNjYsLTEuNSAxLjUsLTEuNSAwLjc4LDAgMS41LDAuNjYgMS41LDEuNSB6IiBjbGlwLXBhdGg9InVybCgjU1ZHSURfNl8pIiBpZD0icGF0aDQ2MjU0IiBpbmtzY2FwZTpjb25uZWN0b3ItY3VydmF0dXJlPSIwIi8+JiN4YTsJCTxwYXRoIHN0eWxlPSJmaWxsOiM1NTZhOGEiIGQ9Im0gMzI4LjEzLDYyLjM2IGMgLTE1Ljc2LDAgLTI3LjIxLDE0LjkyIC0yMy4xOSwzMC4xNCAwLjMsMS4wMiAwLjY2LDIuMSAxLjA4LDMuMTIgMC4xOCwwLjQyIDAuMzYsMC44NCAwLjU0LDEuMiAwLjM2LDAuNzggMC43OCwxLjU2IDEuMjYsMi4yOCAwLjYsMC45IDEuMjYsMS44IDEuOTIsMi42NCAxMS4yNywxMy40MiAzMi43MiwxMC42MSA0MC4wOSwtNS4yNyA3LjQyLC0xNS44OSAtNC4xNCwtMzQuMTEgLTIxLjcsLTM0LjExIHogbSAwLDEuNSBjIDE2LjQyLDAgMjcuMzMsMTcuMDggMjAuMzcsMzIgLTYuOTUsMTQuODYgLTI3LjAzLDE3LjUgLTM3LjU3LDQuOTEgLTAuNzIsLTAuNzggLTEuMzIsLTEuNjIgLTEuODYsLTIuNTIgLTAuNDIsLTAuNjYgLTAuODQsLTEuMzggLTEuMTQsLTIuMSAtMC4yNCwtMC40MiAtMC40MiwtMC43OCAtMC41NCwtMS4xNCAtMC40MiwtMC45NiAtMC43MiwtMS45MiAtMC45NiwtMi45NCAtMy44MywtMTQuMjUgNi45NiwtMjguMjEgMjEuNywtMjguMjEgeiIgY2xpcC1wYXRoPSJ1cmwoI1NWR0lEXzZfKSIgaWQ9InBhdGg0NjI1NiIgaW5rc2NhcGU6Y29ubmVjdG9yLWN1cnZhdHVyZT0iMCIvPiYjeGE7CTwvZz4mI3hhOzwvZz4mI3hhOzwvc3ZnPg==;fillColor=#4D9900;" parent="1" vertex="1">
          <mxGeometry x="236.50000000000006" y="355.5" width="48" height="48" as="geometry" />
        </mxCell>
        <mxCell id="RLjyjs_sm2IHfBNOWAbh-14" value="Event Hub" style="aspect=fixed;html=1;perimeter=none;align=center;shadow=0;dashed=0;image;fontSize=12;image=img/lib/mscae/Event_Hubs.svg;labelBackgroundColor=#ffffff;fillColor=#4D9900;" parent="1" vertex="1">
          <mxGeometry x="465.5" y="198.99999999999994" width="48.5" height="50" as="geometry" />
        </mxCell>
        <mxCell id="RLjyjs_sm2IHfBNOWAbh-16" value="Stream Analytics" style="aspect=fixed;html=1;perimeter=none;align=center;shadow=0;dashed=0;image;fontSize=12;image=img/lib/mscae/Stream_Analytics.svg;labelBackgroundColor=#ffffff;fillColor=#4D9900;" parent="1" vertex="1">
          <mxGeometry x="688.0000000000001" y="198.5" width="65" height="51" as="geometry" />
        </mxCell>
        <mxCell id="RLjyjs_sm2IHfBNOWAbh-17" value="Machine&lt;br&gt;Learning" style="aspect=fixed;html=1;perimeter=none;align=left;shadow=0;dashed=0;image;fontSize=12;image=img/lib/mscae/Machine_Learning.svg;labelBackgroundColor=#ffffff;fillColor=#4D9900;labelPosition=right;verticalLabelPosition=bottom;verticalAlign=top;" parent="1" vertex="1">
          <mxGeometry x="745.5" y="183.5" width="29" height="30" as="geometry" />
        </mxCell>
        <mxCell id="RLjyjs_sm2IHfBNOWAbh-19" value="Geography&lt;br&gt;Data" style="aspect=fixed;html=1;perimeter=none;align=center;shadow=0;dashed=0;image;fontSize=12;image=img/lib/mscae/BlobBlock.svg;labelBackgroundColor=#ffffff;fillColor=#4D9900;spacingTop=7;" parent="1" vertex="1">
          <mxGeometry x="695.5000000000001" y="358.2499999999999" width="50" height="42.5" as="geometry" />
        </mxCell>
        <mxCell id="RLjyjs_sm2IHfBNOWAbh-20" value="HDInsight" style="aspect=fixed;html=1;perimeter=none;align=center;shadow=0;dashed=0;image;fontSize=12;image=img/lib/mscae/HDInsight.svg;labelBackgroundColor=#ffffff;fillColor=#4D9900;spacingTop=4;" parent="1" vertex="1">
          <mxGeometry x="695.5000000000001" y="484.2500000000001" width="50" height="38.5" as="geometry" />
        </mxCell>
        <mxCell id="RLjyjs_sm2IHfBNOWAbh-21" value="Machine&lt;br&gt;Learning" style="aspect=fixed;html=1;perimeter=none;align=center;shadow=0;dashed=0;image;fontSize=12;image=img/lib/mscae/Machine_Learning.svg;labelBackgroundColor=#ffffff;fillColor=#4D9900;" parent="1" vertex="1">
          <mxGeometry x="555.5" y="478.5000000000001" width="49" height="50" as="geometry" />
        </mxCell>
        <mxCell id="RLjyjs_sm2IHfBNOWAbh-22" value="Data Factory" style="aspect=fixed;html=1;perimeter=none;align=center;shadow=0;dashed=0;image;fontSize=12;image=img/lib/mscae/Data_Factory.svg;labelBackgroundColor=#ffffff;fillColor=#4D9900;" parent="1" vertex="1">
          <mxGeometry x="695.5000000000001" y="591.5" width="50" height="50" as="geometry" />
        </mxCell>
        <mxCell id="RLjyjs_sm2IHfBNOWAbh-23" value="SQL Data&lt;br&gt;Warehouse" style="aspect=fixed;html=1;perimeter=none;align=center;shadow=0;dashed=0;image;fontSize=12;image=img/lib/mscae/SQL_Database_generic.svg;labelBackgroundColor=#ffffff;fillColor=#4D9900;spacingTop=6;" parent="1" vertex="1">
          <mxGeometry x="890.2499999999998" y="478.5" width="37.5" height="50" as="geometry" />
        </mxCell>
        <mxCell id="RLjyjs_sm2IHfBNOWAbh-24" value="Power BI" style="shadow=0;dashed=0;html=1;strokeColor=none;labelPosition=center;verticalLabelPosition=bottom;verticalAlign=top;align=center;shape=mxgraph.mscae.cloud.power_bi_embedded;fillColor=#000000;pointerEvents=1;labelBackgroundColor=#ffffff;spacingTop=7;" parent="1" vertex="1">
          <mxGeometry x="885.4999999999999" y="354.5" width="47" height="50" as="geometry" />
        </mxCell>
        <mxCell id="rDDcXXg_0v3O3Yvvn_hc-3" value="" style="shape=image;verticalLabelPosition=bottom;labelBackgroundColor=#ffffff;verticalAlign=top;aspect=fixed;imageAspect=0;image=data:image/svg+xml,PHN2ZyB4bWxuczpjYz0iaHR0cDovL2NyZWF0aXZlY29tbW9ucy5vcmcvbnMjIiB4bWxuczpkYz0iaHR0cDovL3B1cmwub3JnL2RjL2VsZW1lbnRzLzEuMS8iIHhtbG5zOmlua3NjYXBlPSJodHRwOi8vd3d3Lmlua3NjYXBlLm9yZy9uYW1lc3BhY2VzL2lua3NjYXBlIiB4bWxuczpyZGY9Imh0dHA6Ly93d3cudzMub3JnLzE5OTkvMDIvMjItcmRmLXN5bnRheC1ucyMiIHhtbG5zOnNvZGlwb2RpPSJodHRwOi8vc29kaXBvZGkuc291cmNlZm9yZ2UubmV0L0RURC9zb2RpcG9kaS0wLmR0ZCIgeG1sbnM6c3ZnPSJodHRwOi8vd3d3LnczLm9yZy8yMDAwL3N2ZyIgeG1sbnM9Imh0dHA6Ly93d3cudzMub3JnLzIwMDAvc3ZnIiB4bWxuczp4bGluaz0iaHR0cDovL3d3dy53My5vcmcvMTk5OS94bGluayIgdmVyc2lvbj0iMS4xIiBpZD0ic3ZnOTcxMDUiIGlua3NjYXBlOnZlcnNpb249IjAuOTIuMyAoMjQwNTU0NiwgMjAxOC0wMy0xMSkiIHNvZGlwb2RpOmRvY25hbWU9ImNsb3VkX2RhdGFiYXNlLnN2ZyIgeD0iMHB4IiB5PSIwcHgiIHZpZXdCb3g9IjAgMCAxNDQuMzUgNzkuMjkiIHN0eWxlPSJlbmFibGUtYmFja2dyb3VuZDpuZXcgMCAwIDE0NC4zNSA3OS4yOTsiIHhtbDpzcGFjZT0icHJlc2VydmUiPiYjeGE7PHNvZGlwb2RpOm5hbWVkdmlldyBib3JkZXJjb2xvcj0iIzY2NjY2NiIgYm9yZGVyb3BhY2l0eT0iMSIgZml0LW1hcmdpbi1ib3R0b209IjAiIGZpdC1tYXJnaW4tbGVmdD0iMCIgZml0LW1hcmdpbi1yaWdodD0iMCIgZml0LW1hcmdpbi10b3A9IjAiIGdyaWR0b2xlcmFuY2U9IjEwIiBndWlkZXRvbGVyYW5jZT0iMTAiIGlkPSJuYW1lZHZpZXc5NzEwNyIgaW5rc2NhcGU6Y3VycmVudC1sYXllcj0ic3ZnOTcxMDUiIGlua3NjYXBlOmN4PSI5Ni4yMzk3MjkiIGlua3NjYXBlOmN5PSI1Mi44Njc1MTkiIGlua3NjYXBlOnBhZ2VvcGFjaXR5PSIwIiBpbmtzY2FwZTpwYWdlc2hhZG93PSIyIiBpbmtzY2FwZTp3aW5kb3ctaGVpZ2h0PSIxMDE3IiBpbmtzY2FwZTp3aW5kb3ctbWF4aW1pemVkPSIxIiBpbmtzY2FwZTp3aW5kb3ctd2lkdGg9IjE5MjAiIGlua3NjYXBlOndpbmRvdy14PSItOCIgaW5rc2NhcGU6d2luZG93LXk9Ii04IiBpbmtzY2FwZTp6b29tPSI4LjA0NzgwNzgiIG9iamVjdHRvbGVyYW5jZT0iMTAiIHBhZ2Vjb2xvcj0iI2ZmZmZmZiIgc2hvd2dyaWQ9ImZhbHNlIj4mI3hhOwk8L3NvZGlwb2RpOm5hbWVkdmlldz4mI3hhOzxnIGlkPSJnOTcxMDMiIHRyYW5zZm9ybT0idHJhbnNsYXRlKC0wLjc0MDAwMTYsLTAuNzU1NjEzMTMpIj4mI3hhOwk8dGl0bGUgaWQ9InRpdGxlOTcwNjUiPlBhZ2UtMTwvdGl0bGU+JiN4YTsJPGcgaWQ9Imdyb3VwMzUxMy0xIiB0cmFuc2Zvcm09InRyYW5zbGF0ZSgwLjg3NzAwMywtMC43NSkiPiYjeGE7CQk8dGl0bGUgaWQ9InRpdGxlOTcwNjciPkNsb3VkIERhdGFiYXNlPC90aXRsZT4mI3hhOwkJPGcgaWQ9InNoYXBlMzUxNC0yIiB0cmFuc2Zvcm09InRyYW5zbGF0ZSgwLC0xMC4xNDIxKSI+JiN4YTsJCQk8dGl0bGUgaWQ9InRpdGxlOTcwNjkiPnBhdGgxMDE0PC90aXRsZT4mI3hhOwkJCTxwYXRoIGlkPSJwYXRoOTcwNzEiIGlua3NjYXBlOmNvbm5lY3Rvci1jdXJ2YXR1cmU9IjAiIHN0eWxlPSJmaWxsOiM4MERFRjk7ZmlsbC1vcGFjaXR5OjAuNzsiIGQ9Ik0xMTIuMiwzNi44OSAgICAgYy0yLjM3LTE2LjEzLTE3LjM3LTI3LjMtMzMuNS0yNC45M0M2Ni4xNCwxMy44LDU2LjE2LDIzLjQ3LDUzLjkyLDM1Ljk3Yy04LjUzLTcuMS0yMS4yLTUuOTMtMjguMywyLjYgICAgIGMtMS44NSwyLjIzLTMuMiw0LjgzLTMuOTUsNy42MmMtOS40MS0yLjM0LTE4Ljk0LDMuMzktMjEuMjksMTIuOHMzLjM5LDE4Ljk0LDEyLjgsMjEuMjljMS40LDAuMzUsMi44NSwwLjUyLDQuMjksMC41Mmg5OC44MiAgICAgYzEwLjAzLTIuMDMsMTcuNTgtMTEuMzQsMTcuNTgtMjEuOTZDMTMzLjg4LDQ2LjgyLDEyNC4yMiwzNy4wNCwxMTIuMiwzNi44OXoiLz4mI3hhOwkJPC9nPiYjeGE7CQk8ZyBpZD0iZ3JvdXAzNTE1LTQiIHRyYW5zZm9ybT0idHJhbnNsYXRlKDk5LjIxMjYpIj4mI3hhOwkJCTx0aXRsZSBpZD0idGl0bGU5NzA3NCI+U2hlZXQuMzUxNTwvdGl0bGU+JiN4YTsJCQk8ZyBpZD0ic2hhcGUzNTE2LTUiPiYjeGE7CQkJCTx0aXRsZSBpZD0idGl0bGU5NzA3NiI+cGF0aDExNjk8L3RpdGxlPiYjeGE7CQkJCTxwYXRoIGlkPSJwYXRoOTcwNzgiIGlua3NjYXBlOmNvbm5lY3Rvci1jdXJ2YXR1cmU9IjAiIHN0eWxlPSJmaWxsOiMzMTYzODk7IiBkPSJNMjIuNSwzMS4wMUgwdjQyLjU0ICAgICAgYzAsNC4zOCwxMS4yNSw3LjI1LDIyLjUsNy4yNVM0NSw3Ny43MSw0NSw3My4zVjMxLjAxSDIyLjV6Ii8+JiN4YTsJCQk8L2c+JiN4YTsJCQk8ZyBpZD0ic2hhcGUzNTE3LTciIHRyYW5zZm9ybT0idHJhbnNsYXRlKDIyLjUsLTAuMjg1KSI+JiN4YTsJCQkJPHRpdGxlIGlkPSJ0aXRsZTk3MDgxIj5wYXRoMTE3MTwvdGl0bGU+JiN4YTsJCQkJPHBhdGggaWQ9InBhdGg5NzA4MyIgaW5rc2NhcGU6Y29ubmVjdG9yLWN1cnZhdHVyZT0iMCIgc3R5bGU9ImZpbGw6I0ZGRkZGRjtmaWxsLW9wYWNpdHk6MC4wOTg7IiBkPSJNMCw4MC44aDAuMzEgICAgICBjMTIuMjUsMCwyMi4xOS0zLjU2LDIyLjE5LTcuOTV2LTQyLjNIMFY4MC44eiIvPiYjeGE7CQkJPC9nPiYjeGE7CQkJPGcgaWQ9InNoYXBlMzUxOC05IiB0cmFuc2Zvcm09InRyYW5zbGF0ZSgwLC00Mi4xMikiPiYjeGE7CQkJCTx0aXRsZSBpZD0idGl0bGU5NzA4NiI+cGF0aDExNzM8L3RpdGxlPiYjeGE7CQkJCTxwYXRoIGlkPSJwYXRoOTcwODgiIGlua3NjYXBlOmNvbm5lY3Rvci1jdXJ2YXR1cmU9IjAiIHN0eWxlPSJmaWxsOiM2MzhBQTU7IiBkPSJNNDUsNzIuODRjMCw0LjQtMTAuMDcsNy45Ni0yMi41LDcuOTYgICAgICBTMCw3Ny4yNCwwLDcyLjg0YzAtNC4zOSwxMC4wNy03Ljk2LDIyLjUtNy45NlM0NSw2OC40NSw0NSw3Mi44NHoiLz4mI3hhOwkJCTwvZz4mI3hhOwkJCTxnIGlkPSJzaGFwZTM1MTktMTEiIHRyYW5zZm9ybT0idHJhbnNsYXRlKDMuNTQsLTQ0LjUzNSkiPiYjeGE7CQkJCTx0aXRsZSBpZD0idGl0bGU5NzA5MSI+cGF0aDExNzU8L3RpdGxlPiYjeGE7CQkJCTxwYXRoIGlkPSJwYXRoOTcwOTMiIGlua3NjYXBlOmNvbm5lY3Rvci1jdXJ2YXR1cmU9IjAiIHN0eWxlPSJmaWxsOiMxNzVEODc7IiBkPSJNMzcuMzksNzUuNTVjMCwyLjktOC4zNyw1LjI1LTE4LjY5LDUuMjUgICAgICBDOC4zNyw4MC44LDAsNzguNDQsMCw3NS41NWMwLTIuOSw4LjM3LTUuMjUsMTguNy01LjI1QzI5LjAyLDcwLjMsMzcuMzksNzIuNjUsMzcuMzksNzUuNTV6Ii8+JiN4YTsJCQk8L2c+JiN4YTsJCQk8ZyBpZD0ic2hhcGUzNTIwLTEzIiB0cmFuc2Zvcm09InRyYW5zbGF0ZSgzLjUzMjUsLTQ2LjU3NSkiPiYjeGE7CQkJCTx0aXRsZSBpZD0idGl0bGU5NzA5NiI+cGF0aDExNzc8L3RpdGxlPiYjeGE7CQkJCTxwYXRoIGlkPSJwYXRoOTcwOTgiIGlua3NjYXBlOmNvbm5lY3Rvci1jdXJ2YXR1cmU9IjAiIHN0eWxlPSJmaWxsOiMzNzcwOTM7IiBkPSJNMzMuNDgsODAuOGMyLjQ0LTAuODksMy45MS0yLDMuOTEtMy4yICAgICAgYzAtMi45MS04LjM3LTUuMjUtMTguNjktNS4yNUM4LjM3LDcyLjM1LDAsNzQuNjksMCw3Ny42YzAsMS4yLDEuNSwyLjMxLDMuOTEsMy4yYzMuNDItMS4yNCw4Ljc2LTIuMDQsMTQuNzktMi4wNCAgICAgIEMyNC43Miw3OC43NiwzMC4wNiw3OS41NiwzMy40OCw4MC44eiIvPiYjeGE7CQkJPC9nPiYjeGE7CQk8L2c+JiN4YTsJPC9nPiYjeGE7PC9nPiYjeGE7PC9zdmc+;" vertex="1" parent="1">
          <mxGeometry x="-190" y="50" width="144" height="79" as="geometry" />
        </mxCell>
        <mxCell id="rDDcXXg_0v3O3Yvvn_hc-4" value="" style="shape=image;verticalLabelPosition=bottom;labelBackgroundColor=#ffffff;verticalAlign=top;aspect=fixed;imageAspect=0;image=data:image/svg+xml,PHN2ZyB4bWxuczpjYz0iaHR0cDovL2NyZWF0aXZlY29tbW9ucy5vcmcvbnMjIiB4bWxuczpkYz0iaHR0cDovL3B1cmwub3JnL2RjL2VsZW1lbnRzLzEuMS8iIHhtbG5zOmlua3NjYXBlPSJodHRwOi8vd3d3Lmlua3NjYXBlLm9yZy9uYW1lc3BhY2VzL2lua3NjYXBlIiB4bWxuczpyZGY9Imh0dHA6Ly93d3cudzMub3JnLzE5OTkvMDIvMjItcmRmLXN5bnRheC1ucyMiIHhtbG5zOnNvZGlwb2RpPSJodHRwOi8vc29kaXBvZGkuc291cmNlZm9yZ2UubmV0L0RURC9zb2RpcG9kaS0wLmR0ZCIgeG1sbnM6c3ZnPSJodHRwOi8vd3d3LnczLm9yZy8yMDAwL3N2ZyIgeG1sbnM9Imh0dHA6Ly93d3cudzMub3JnLzIwMDAvc3ZnIiB4bWxuczp4bGluaz0iaHR0cDovL3d3dy53My5vcmcvMTk5OS94bGluayIgdmVyc2lvbj0iMS4xIiBpZD0ic3ZnOTgzMjMiIGlua3NjYXBlOnZlcnNpb249IjAuOTIuMyAoMjQwNTU0NiwgMjAxOC0wMy0xMSkiIHNvZGlwb2RpOmRvY25hbWU9ImRhdGFiYXNlX2FuZF90YWJsZS5zdmciIHg9IjBweCIgeT0iMHB4IiB2aWV3Qm94PSIwIDAgNDIuNzUgNDcuNjkiIHN0eWxlPSJlbmFibGUtYmFja2dyb3VuZDpuZXcgMCAwIDQyLjc1IDQ3LjY5OyIgeG1sOnNwYWNlPSJwcmVzZXJ2ZSI+JiN4YTs8c29kaXBvZGk6bmFtZWR2aWV3IGJvcmRlcmNvbG9yPSIjNjY2NjY2IiBib3JkZXJvcGFjaXR5PSIxIiBmaXQtbWFyZ2luLWJvdHRvbT0iMCIgZml0LW1hcmdpbi1sZWZ0PSIwIiBmaXQtbWFyZ2luLXJpZ2h0PSIwIiBmaXQtbWFyZ2luLXRvcD0iMCIgZ3JpZHRvbGVyYW5jZT0iMTAiIGd1aWRldG9sZXJhbmNlPSIxMCIgaWQ9Im5hbWVkdmlldzk4MzI1IiBpbmtzY2FwZTpjdXJyZW50LWxheWVyPSJzdmc5ODMyMyIgaW5rc2NhcGU6Y3g9IjI5IiBpbmtzY2FwZTpjeT0iMzEuNzkxNjY4IiBpbmtzY2FwZTpwYWdlb3BhY2l0eT0iMCIgaW5rc2NhcGU6cGFnZXNoYWRvdz0iMiIgaW5rc2NhcGU6d2luZG93LWhlaWdodD0iMTAxNyIgaW5rc2NhcGU6d2luZG93LW1heGltaXplZD0iMSIgaW5rc2NhcGU6d2luZG93LXdpZHRoPSIxOTIwIiBpbmtzY2FwZTp3aW5kb3cteD0iLTgiIGlua3NjYXBlOndpbmRvdy15PSItOCIgaW5rc2NhcGU6em9vbT0iMTMuMjE4NDgxIiBvYmplY3R0b2xlcmFuY2U9IjEwIiBwYWdlY29sb3I9IiNmZmZmZmYiIHNob3dncmlkPSJmYWxzZSI+JiN4YTsJPC9zb2RpcG9kaTpuYW1lZHZpZXc+JiN4YTs8ZyBpZD0iZzk4MzIxIiB0cmFuc2Zvcm09InRyYW5zbGF0ZSgtMC43NSwtMC43NDUpIj4mI3hhOwk8dGl0bGUgaWQ9InRpdGxlOTgyNjciPlBhZ2UtMTwvdGl0bGU+JiN4YTsJPGcgaWQ9Imdyb3VwMzg0Mi0xIiB0cmFuc2Zvcm09InRyYW5zbGF0ZSgxLjUsLTEuNSkiPiYjeGE7CQk8dGl0bGUgaWQ9InRpdGxlOTgyNjkiPkRhdGFiYXNlIGFuZCBUYWJsZTwvdGl0bGU+JiN4YTsJCTxnIGlkPSJzaGFwZTM4NDMtMiI+JiN4YTsJCQk8dGl0bGUgaWQ9InRpdGxlOTgyNzEiPnBhdGg0MjczPC90aXRsZT4mI3hhOwkJCTxwYXRoIGlkPSJwYXRoOTgyNzMiIGlua3NjYXBlOmNvbm5lY3Rvci1jdXJ2YXR1cmU9IjAiIHN0eWxlPSJmaWxsOiNGRkZGRkY7IiBkPSJNMzEuNzksOUwyMS40NCw5LjA5TDAsOS4yN3YzMy4zNyAgICAgYzAsMy40Miw3LjUsNi4zNywxNy4yNSw2LjU1aDAuMzdjMS4zMiwwLDIuNi0wLjA3LDMuODItMC4xOWMzLjU3LTAuMjIsNy4wOC0xLjA3LDEwLjM1LTIuNTNjMi4xOS0xLjEsMy40Ni0yLjQ0LDMuNDYtMy44M1Y4Ljk3ICAgICBMMzEuNzksOXoiLz4mI3hhOwkJPC9nPiYjeGE7CQk8ZyBpZD0ic2hhcGUzODQ0LTQiIHRyYW5zZm9ybT0idHJhbnNsYXRlKDIxLjE1LC0wLjIxKSI+JiN4YTsJCQk8dGl0bGUgaWQ9InRpdGxlOTgyNzYiPnBhdGg0Mjc1PC90aXRsZT4mI3hhOwkJCTxwYXRoIGlkPSJwYXRoOTgyNzgiIGlua3NjYXBlOmNvbm5lY3Rvci1jdXJ2YXR1cmU9IjAiIHN0eWxlPSJmaWxsOiNFNUU1RTU7IiBkPSJNMTAuMzUsOS4yMXYzNy40NSAgICAgQzcuMDgsNDguMTIsMy41Nyw0OC45NywwLDQ5LjE5VjkuM0wxMC4zNSw5LjIxeiIvPiYjeGE7CQk8L2c+JiN4YTsJCTxnIGlkPSJzaGFwZTM4NDUtNiI+JiN4YTsJCQk8dGl0bGUgaWQ9InRpdGxlOTgyODEiPnBhdGg0Mjc3PC90aXRsZT4mI3hhOwkJCTxwYXRoIGlkPSJwYXRoOTgyODMiIGlua3NjYXBlOmNvbm5lY3Rvci1jdXJ2YXR1cmU9IjAiIHN0eWxlPSJmaWxsOm5vbmU7IiBkPSJNMCw5LjI3djMzLjM3YzAsMy40Miw3LjQ2LDYuMzcsMTcuMjUsNi41NWgwLjM3ICAgICBjOS45Ny0wLjEzLDE3LjYzLTMuMSwxNy42My02LjU1VjguOTdMMCw5LjI3eiIvPiYjeGE7CQkJJiN4YTsJCQkJPHBhdGggaWQ9InBhdGg5ODI4NSIgaW5rc2NhcGU6Y29ubmVjdG9yLWN1cnZhdHVyZT0iMCIgc3R5bGU9ImZpbGw6bm9uZTtzdHJva2U6IzU1NkE4QTtzdHJva2Utd2lkdGg6MS41O3N0cm9rZS1taXRlcmxpbWl0OjM7IiBkPSIgICAgIE0wLDkuMjd2MzMuMzdjMCwzLjQyLDcuNDYsNi4zNywxNy4yNSw2LjU1aDAuMzdjOS45Ny0wLjEzLDE3LjYzLTMuMSwxNy42My02LjU1VjguOTciLz4mI3hhOwkJPC9nPiYjeGE7CQk8ZyBpZD0ic2hhcGUzODQ2LTkiIHRyYW5zZm9ybT0idHJhbnNsYXRlKDAuMDQ1LC0zMy40NjUpIj4mI3hhOwkJCTx0aXRsZSBpZD0idGl0bGU5ODI4OCI+cGF0aDQyNzk8L3RpdGxlPiYjeGE7CQkJPHBhdGggaWQ9InBhdGg5ODI5MCIgaW5rc2NhcGU6Y29ubmVjdG9yLWN1cnZhdHVyZT0iMCIgc3R5bGU9ImZpbGw6I0JBRDgwQTsiIGQ9Ik0zNS4yNSw0Mi44MmMwLDMuNTItNy44OSw2LjM3LTE3LjYzLDYuMzcgICAgIEM3Ljg5LDQ5LjE5LDAsNDYuMzQsMCw0Mi44MmMwLTMuNTEsOC4xMi02LjM2LDE3Ljg2LTYuMzZDMjcuNTksMzYuNDYsMzUuMjUsMzkuMzEsMzUuMjUsNDIuODJMMzUuMjUsNDIuODJ6Ii8+JiN4YTsJCQkmI3hhOwkJCQk8cGF0aCBpZD0icGF0aDk4MjkyIiBpbmtzY2FwZTpjb25uZWN0b3ItY3VydmF0dXJlPSIwIiBzdHlsZT0iZmlsbDpub25lO3N0cm9rZTojNTU2QThBO3N0cm9rZS13aWR0aDoxLjU7c3Ryb2tlLW1pdGVybGltaXQ6MzsiIGQ9IiAgICAgTTM1LjI1LDQyLjgyYzAsMy41Mi03Ljg5LDYuMzctMTcuNjMsNi4zN0M3Ljg5LDQ5LjE5LDAsNDYuMzQsMCw0Mi44MmMwLTMuNTEsOC4xMi02LjM2LDE3Ljg2LTYuMzYgICAgIEMyNy41OSwzNi40NiwzNS4yNSwzOS4zMSwzNS4yNSw0Mi44MiIvPiYjeGE7CQk8L2c+JiN4YTsJCTxnIGlkPSJzaGFwZTM4NDctMTIiIHRyYW5zZm9ybT0idHJhbnNsYXRlKDE0LjI1LC05LjU0NzUpIj4mI3hhOwkJCTx0aXRsZSBpZD0idGl0bGU5ODI5NSI+cmVjdDQyODM8L3RpdGxlPiYjeGE7CQkJJiN4YTsJCQkJPHJlY3QgaWQ9InJlY3Q5ODI5NyIgeT0iMzEuMTkiIHN0eWxlPSJmaWxsOiNGRkZGRkY7c3Ryb2tlOiM1NTZBOEE7c3Ryb2tlLXdpZHRoOjEuNTtzdHJva2UtbWl0ZXJsaW1pdDozOyIgd2lkdGg9IjI3IiBoZWlnaHQ9IjE4Ii8+JiN4YTsJCTwvZz4mI3hhOwkJPGcgaWQ9InNoYXBlMzg0OC0xNCIgdHJhbnNmb3JtPSJ0cmFuc2xhdGUoMTQuMjUsLTIxLjU0NzUpIj4mI3hhOwkJCTx0aXRsZSBpZD0idGl0bGU5ODMwMCI+bGluZTQyODU8L3RpdGxlPiYjeGE7CQkJJiN4YTsJCQkJPHBhdGggaWQ9InBhdGg5ODMwMiIgaW5rc2NhcGU6Y29ubmVjdG9yLWN1cnZhdHVyZT0iMCIgc3R5bGU9ImZpbGw6bm9uZTtzdHJva2U6IzU1NkE4QTtzdHJva2Utd2lkdGg6MS41O3N0cm9rZS1taXRlcmxpbWl0OjM7IiBkPSIgICAgIE0wLDQ5LjE5aDI3Ljc1Ii8+JiN4YTsJCTwvZz4mI3hhOwkJPGcgaWQ9InNoYXBlMzg0OS0xNyIgdHJhbnNmb3JtPSJ0cmFuc2xhdGUoMTQuMjUsLTE1LjU0NzUpIj4mI3hhOwkJCTx0aXRsZSBpZD0idGl0bGU5ODMwNSI+bGluZTQyODc8L3RpdGxlPiYjeGE7CQkJJiN4YTsJCQkJPHBhdGggaWQ9InBhdGg5ODMwNyIgaW5rc2NhcGU6Y29ubmVjdG9yLWN1cnZhdHVyZT0iMCIgc3R5bGU9ImZpbGw6bm9uZTtzdHJva2U6IzU1NkE4QTtzdHJva2Utd2lkdGg6MS41O3N0cm9rZS1taXRlcmxpbWl0OjM7IiBkPSIgICAgIE0wLDQ5LjE5aDI3Ljc1Ii8+JiN4YTsJCTwvZz4mI3hhOwkJPGcgaWQ9InNoYXBlMzg1MC0yMCIgdHJhbnNmb3JtPSJyb3RhdGUoOTAsMjUuMzk4NzUsNDcuMDQzNzUpIj4mI3hhOwkJCTx0aXRsZSBpZD0idGl0bGU5ODMxMCI+bGluZTQyODk8L3RpdGxlPiYjeGE7CQkJJiN4YTsJCQkJPHBhdGggaWQ9InBhdGg5ODMxMiIgaW5rc2NhcGU6Y29ubmVjdG9yLWN1cnZhdHVyZT0iMCIgc3R5bGU9ImZpbGw6bm9uZTtzdHJva2U6IzU1NkE4QTtzdHJva2Utd2lkdGg6MS41O3N0cm9rZS1taXRlcmxpbWl0OjM7IiBkPSIgICAgIE0wLDQ5LjE5aDE4Ii8+JiN4YTsJCTwvZz4mI3hhOwkJPGcgaWQ9InNoYXBlMzg1MS0yMyIgdHJhbnNmb3JtPSJyb3RhdGUoOTAsMjkuODk4NzUsNTEuNTQzNzUpIj4mI3hhOwkJCTx0aXRsZSBpZD0idGl0bGU5ODMxNSI+bGluZTQyOTE8L3RpdGxlPiYjeGE7CQkJJiN4YTsJCQkJPHBhdGggaWQ9InBhdGg5ODMxNyIgaW5rc2NhcGU6Y29ubmVjdG9yLWN1cnZhdHVyZT0iMCIgc3R5bGU9ImZpbGw6bm9uZTtzdHJva2U6IzU1NkE4QTtzdHJva2Utd2lkdGg6MS41O3N0cm9rZS1taXRlcmxpbWl0OjM7IiBkPSIgICAgIE0wLDQ5LjE5aDE4Ii8+JiN4YTsJCTwvZz4mI3hhOwk8L2c+JiN4YTs8L2c+JiN4YTs8L3N2Zz4=;" vertex="1" parent="1">
          <mxGeometry x="30" y="66" width="43" height="48" as="geometry" />
        </mxCell>
        <mxCell id="rDDcXXg_0v3O3Yvvn_hc-7" value="&lt;h1 style=&quot;margin-top: 0px;&quot;&gt;Datasets Diversos:&lt;div&gt;&lt;ul&gt;&lt;li&gt;CSV&lt;/li&gt;&lt;li&gt;JSON&lt;/li&gt;&lt;li&gt;Bancos Relacionais&lt;/li&gt;&lt;/ul&gt;&lt;/div&gt;&lt;div&gt;&lt;br style=&quot;font-size: 12px; font-weight: 400;&quot;&gt;&lt;/div&gt;&lt;/h1&gt;" style="text;html=1;whiteSpace=wrap;overflow=hidden;rounded=0;" vertex="1" parent="1">
          <mxGeometry x="90" y="60" width="270" height="170" as="geometry" />
        </mxCell>
      </root>
    </mxGraphModel>
  </diagram>
</mxfile>
